<?xml version="1.0" encoding="UTF-8"?>
<!-- Do not edit this file with editors other than draw.io -->
<!DOCTYPE svg PUBLIC "-//W3C//DTD SVG 1.1//EN" "http://www.w3.org/Graphics/SVG/1.1/DTD/svg11.dtd">
<svg xmlns="http://www.w3.org/2000/svg" xmlns:xlink="http://www.w3.org/1999/xlink" version="1.1" width="80px" height="80px" viewBox="-0.5 -0.5 80.5 80.5" content="&lt;mxfile host=&quot;app.diagrams.net&quot; modified=&quot;2024-01-08T06:57:10.997Z&quot; agent=&quot;Mozilla/5.0 (Macintosh; Intel Mac OS X 10_15_7) AppleWebKit/605.1.15 (KHTML, like Gecko) Version/16.5 Safari/605.1.15&quot; etag=&quot;-NdiqIfl4MuQgwTz8eHP&quot; version=&quot;22.1.17&quot; type=&quot;device&quot;&gt;&#10;  &lt;diagram name=&quot;Page-1&quot; id=&quot;vZSfhSDRtspNRsT7TcGX&quot;&gt;&#10;    &lt;mxGraphModel dx=&quot;395&quot; dy=&quot;238&quot; grid=&quot;1&quot; gridSize=&quot;10&quot; guides=&quot;1&quot; tooltips=&quot;1&quot; connect=&quot;1&quot; arrows=&quot;1&quot; fold=&quot;1&quot; page=&quot;1&quot; pageScale=&quot;1&quot; pageWidth=&quot;827&quot; pageHeight=&quot;1169&quot; math=&quot;0&quot; shadow=&quot;0&quot;&gt;&#10;      &lt;root&gt;&#10;        &lt;mxCell id=&quot;0&quot; /&gt;&#10;        &lt;mxCell id=&quot;1&quot; parent=&quot;0&quot; /&gt;&#10;        &lt;mxCell id=&quot;b4bbUmZ0OVu__kuDhGFm-1&quot; value=&quot;&quot; style=&quot;ellipse;whiteSpace=wrap;html=1;aspect=fixed;strokeColor=none;fillColor=#548b2f;&quot; vertex=&quot;1&quot; parent=&quot;1&quot;&gt;&#10;          &lt;mxGeometry x=&quot;400&quot; y=&quot;260&quot; width=&quot;80&quot; height=&quot;80&quot; as=&quot;geometry&quot; /&gt;&#10;        &lt;/mxCell&gt;&#10;        &lt;mxCell id=&quot;b4bbUmZ0OVu__kuDhGFm-7&quot; value=&quot;&quot; style=&quot;verticalLabelPosition=bottom;verticalAlign=top;html=1;shape=mxgraph.basic.half_circle;strokeColor=none;fillColor=#ff1644;&quot; vertex=&quot;1&quot; parent=&quot;1&quot;&gt;&#10;          &lt;mxGeometry x=&quot;410&quot; y=&quot;300&quot; width=&quot;60&quot; height=&quot;30&quot; as=&quot;geometry&quot; /&gt;&#10;        &lt;/mxCell&gt;&#10;        &lt;mxCell id=&quot;b4bbUmZ0OVu__kuDhGFm-8&quot; value=&quot;&quot; style=&quot;verticalLabelPosition=bottom;verticalAlign=top;html=1;shape=mxgraph.basic.half_circle;rotation=-180;strokeColor=none;fillColor=#ffb706;&quot; vertex=&quot;1&quot; parent=&quot;1&quot;&gt;&#10;          &lt;mxGeometry x=&quot;410&quot; y=&quot;270&quot; width=&quot;60&quot; height=&quot;30&quot; as=&quot;geometry&quot; /&gt;&#10;        &lt;/mxCell&gt;&#10;        &lt;mxCell id=&quot;b4bbUmZ0OVu__kuDhGFm-29&quot; value=&quot;&quot; style=&quot;group&quot; vertex=&quot;1&quot; connectable=&quot;0&quot; parent=&quot;1&quot;&gt;&#10;          &lt;mxGeometry x=&quot;417.43&quot; y=&quot;273.93&quot; width=&quot;45.139999999999986&quot; height=&quot;21.069999999999993&quot; as=&quot;geometry&quot; /&gt;&#10;        &lt;/mxCell&gt;&#10;        &lt;mxCell id=&quot;b4bbUmZ0OVu__kuDhGFm-9&quot; value=&quot;&quot; style=&quot;verticalLabelPosition=bottom;verticalAlign=top;html=1;shape=mxgraph.basic.drop;fillColor=#000000;rotation=180;aspect=fixed;&quot; vertex=&quot;1&quot; parent=&quot;b4bbUmZ0OVu__kuDhGFm-29&quot;&gt;&#10;          &lt;mxGeometry x=&quot;20.069999999999993&quot; y=&quot;1&quot; width=&quot;5&quot; height=&quot;7.14&quot; as=&quot;geometry&quot; /&gt;&#10;        &lt;/mxCell&gt;&#10;        &lt;mxCell id=&quot;b4bbUmZ0OVu__kuDhGFm-14&quot; value=&quot;&quot; style=&quot;verticalLabelPosition=bottom;verticalAlign=top;html=1;shape=mxgraph.basic.drop;fillColor=#000000;rotation=216;aspect=fixed;&quot; vertex=&quot;1&quot; parent=&quot;b4bbUmZ0OVu__kuDhGFm-29&quot;&gt;&#10;          &lt;mxGeometry x=&quot;30.069999999999993&quot; y=&quot;5&quot; width=&quot;5&quot; height=&quot;7.14&quot; as=&quot;geometry&quot; /&gt;&#10;        &lt;/mxCell&gt;&#10;        &lt;mxCell id=&quot;b4bbUmZ0OVu__kuDhGFm-15&quot; value=&quot;&quot; style=&quot;verticalLabelPosition=bottom;verticalAlign=top;html=1;shape=mxgraph.basic.drop;fillColor=#000000;rotation=144;aspect=fixed;&quot; vertex=&quot;1&quot; parent=&quot;b4bbUmZ0OVu__kuDhGFm-29&quot;&gt;&#10;          &lt;mxGeometry x=&quot;10.069999999999993&quot; y=&quot;5&quot; width=&quot;5&quot; height=&quot;7.14&quot; as=&quot;geometry&quot; /&gt;&#10;        &lt;/mxCell&gt;&#10;        &lt;mxCell id=&quot;b4bbUmZ0OVu__kuDhGFm-16&quot; value=&quot;&quot; style=&quot;verticalLabelPosition=bottom;verticalAlign=top;html=1;shape=mxgraph.basic.drop;fillColor=#000000;rotation=90;aspect=fixed;&quot; vertex=&quot;1&quot; parent=&quot;b4bbUmZ0OVu__kuDhGFm-29&quot;&gt;&#10;          &lt;mxGeometry x=&quot;3.069999999999993&quot; y=&quot;15&quot; width=&quot;5&quot; height=&quot;7.14&quot; as=&quot;geometry&quot; /&gt;&#10;        &lt;/mxCell&gt;&#10;        &lt;mxCell id=&quot;b4bbUmZ0OVu__kuDhGFm-17&quot; value=&quot;&quot; style=&quot;verticalLabelPosition=bottom;verticalAlign=top;html=1;shape=mxgraph.basic.drop;fillColor=#000000;rotation=270;aspect=fixed;&quot; vertex=&quot;1&quot; parent=&quot;b4bbUmZ0OVu__kuDhGFm-29&quot;&gt;&#10;          &lt;mxGeometry x=&quot;37.06999999999999&quot; y=&quot;15&quot; width=&quot;5&quot; height=&quot;7.14&quot; as=&quot;geometry&quot; /&gt;&#10;        &lt;/mxCell&gt;&#10;        &lt;mxCell id=&quot;b4bbUmZ0OVu__kuDhGFm-37&quot; value=&quot;&quot; style=&quot;group;direction=west;rotation=-180;&quot; vertex=&quot;1&quot; connectable=&quot;0&quot; parent=&quot;1&quot;&gt;&#10;          &lt;mxGeometry x=&quot;418&quot; y=&quot;304&quot; width=&quot;45.139999999999986&quot; height=&quot;21.069999999999993&quot; as=&quot;geometry&quot; /&gt;&#10;        &lt;/mxCell&gt;&#10;        &lt;mxCell id=&quot;b4bbUmZ0OVu__kuDhGFm-38&quot; value=&quot;&quot; style=&quot;verticalLabelPosition=bottom;verticalAlign=top;html=1;shape=mxgraph.basic.drop;fillColor=#000000;rotation=0;aspect=fixed;&quot; vertex=&quot;1&quot; parent=&quot;b4bbUmZ0OVu__kuDhGFm-37&quot;&gt;&#10;          &lt;mxGeometry x=&quot;20&quot; y=&quot;13&quot; width=&quot;5&quot; height=&quot;7.14&quot; as=&quot;geometry&quot; /&gt;&#10;        &lt;/mxCell&gt;&#10;        &lt;mxCell id=&quot;b4bbUmZ0OVu__kuDhGFm-39&quot; value=&quot;&quot; style=&quot;verticalLabelPosition=bottom;verticalAlign=top;html=1;shape=mxgraph.basic.drop;fillColor=#000000;rotation=36;aspect=fixed;&quot; vertex=&quot;1&quot; parent=&quot;b4bbUmZ0OVu__kuDhGFm-37&quot;&gt;&#10;          &lt;mxGeometry x=&quot;10&quot; y=&quot;9&quot; width=&quot;5&quot; height=&quot;7.14&quot; as=&quot;geometry&quot; /&gt;&#10;        &lt;/mxCell&gt;&#10;        &lt;mxCell id=&quot;b4bbUmZ0OVu__kuDhGFm-40&quot; value=&quot;&quot; style=&quot;verticalLabelPosition=bottom;verticalAlign=top;html=1;shape=mxgraph.basic.drop;fillColor=#000000;rotation=-36;aspect=fixed;&quot; vertex=&quot;1&quot; parent=&quot;b4bbUmZ0OVu__kuDhGFm-37&quot;&gt;&#10;          &lt;mxGeometry x=&quot;30&quot; y=&quot;9&quot; width=&quot;5&quot; height=&quot;7.14&quot; as=&quot;geometry&quot; /&gt;&#10;        &lt;/mxCell&gt;&#10;        &lt;mxCell id=&quot;b4bbUmZ0OVu__kuDhGFm-41&quot; value=&quot;&quot; style=&quot;verticalLabelPosition=bottom;verticalAlign=top;html=1;shape=mxgraph.basic.drop;fillColor=#000000;rotation=-90;aspect=fixed;&quot; vertex=&quot;1&quot; parent=&quot;b4bbUmZ0OVu__kuDhGFm-37&quot;&gt;&#10;          &lt;mxGeometry x=&quot;37&quot; y=&quot;-1&quot; width=&quot;5&quot; height=&quot;7.14&quot; as=&quot;geometry&quot; /&gt;&#10;        &lt;/mxCell&gt;&#10;        &lt;mxCell id=&quot;b4bbUmZ0OVu__kuDhGFm-42&quot; value=&quot;&quot; style=&quot;verticalLabelPosition=bottom;verticalAlign=top;html=1;shape=mxgraph.basic.drop;fillColor=#000000;rotation=90;aspect=fixed;&quot; vertex=&quot;1&quot; parent=&quot;b4bbUmZ0OVu__kuDhGFm-37&quot;&gt;&#10;          &lt;mxGeometry x=&quot;3&quot; y=&quot;-1&quot; width=&quot;5&quot; height=&quot;7.14&quot; as=&quot;geometry&quot; /&gt;&#10;        &lt;/mxCell&gt;&#10;      &lt;/root&gt;&#10;    &lt;/mxGraphModel&gt;&#10;  &lt;/diagram&gt;&#10;&lt;/mxfile&gt;&#10;"><defs/><g><ellipse cx="40" cy="40" rx="40" ry="40" fill="#548b2f" stroke="none" pointer-events="all"/><path d="M 10 40 C 10 56.57 23.43 70 40 70 C 56.57 70 70 56.57 70 40 Z" fill="#ff1644" stroke="none" pointer-events="all"/><path d="M 10 10 C 10 26.57 23.43 40 40 40 C 56.57 40 70 26.57 70 10 Z" fill="#ffb706" stroke="none" transform="rotate(-180,40,25)" pointer-events="all"/><path d="M 40 14.93 L 42.11 18.22 C 42.36 18.63 42.5 19.09 42.5 19.57 C 42.5 20.95 41.38 22.07 40 22.07 C 38.62 22.07 37.5 20.95 37.5 19.57 C 37.5 19.09 37.64 18.63 37.89 18.22 Z" fill="#000000" stroke="rgb(0, 0, 0)" stroke-miterlimit="10" transform="rotate(180,40,18.5)" pointer-events="all"/><path d="M 50 18.93 L 52.11 22.22 C 52.36 22.63 52.5 23.09 52.5 23.57 C 52.5 24.95 51.38 26.07 50 26.07 C 48.62 26.07 47.5 24.95 47.5 23.57 C 47.5 23.09 47.64 22.63 47.89 22.22 Z" fill="#000000" stroke="rgb(0, 0, 0)" stroke-miterlimit="10" transform="rotate(216,50,22.5)" pointer-events="all"/><path d="M 30 18.93 L 32.11 22.22 C 32.36 22.63 32.5 23.09 32.5 23.57 C 32.5 24.95 31.38 26.07 30 26.07 C 28.62 26.07 27.5 24.95 27.5 23.57 C 27.5 23.09 27.64 22.63 27.89 22.22 Z" fill="#000000" stroke="rgb(0, 0, 0)" stroke-miterlimit="10" transform="rotate(144,30,22.5)" pointer-events="all"/><path d="M 23 28.93 L 25.11 32.22 C 25.36 32.63 25.5 33.09 25.5 33.57 C 25.5 34.95 24.38 36.07 23 36.07 C 21.62 36.07 20.5 34.95 20.5 33.57 C 20.5 33.09 20.64 32.63 20.89 32.22 Z" fill="#000000" stroke="rgb(0, 0, 0)" stroke-miterlimit="10" transform="rotate(90,23,32.5)" pointer-events="all"/><path d="M 57 28.93 L 59.11 32.22 C 59.36 32.63 59.5 33.09 59.5 33.57 C 59.5 34.95 58.38 36.07 57 36.07 C 55.62 36.07 54.5 34.95 54.5 33.57 C 54.5 33.09 54.64 32.63 54.89 32.22 Z" fill="#000000" stroke="rgb(0, 0, 0)" stroke-miterlimit="10" transform="rotate(270,57,32.5)" pointer-events="all"/><path d="M 40.5 57 L 42.61 60.29 C 42.86 60.7 43 61.16 43 61.64 C 43 63.02 41.88 64.14 40.5 64.14 C 39.12 64.14 38 63.02 38 61.64 C 38 61.16 38.14 60.7 38.39 60.29 Z" fill="#000000" stroke="rgb(0, 0, 0)" stroke-miterlimit="10" pointer-events="all"/><path d="M 30.5 53 L 32.61 56.29 C 32.86 56.7 33 57.16 33 57.64 C 33 59.02 31.88 60.14 30.5 60.14 C 29.12 60.14 28 59.02 28 57.64 C 28 57.16 28.14 56.7 28.39 56.29 Z" fill="#000000" stroke="rgb(0, 0, 0)" stroke-miterlimit="10" transform="rotate(36,30.5,56.57)" pointer-events="all"/><path d="M 50.5 53 L 52.61 56.29 C 52.86 56.7 53 57.16 53 57.64 C 53 59.02 51.88 60.14 50.5 60.14 C 49.12 60.14 48 59.02 48 57.64 C 48 57.16 48.14 56.7 48.39 56.29 Z" fill="#000000" stroke="rgb(0, 0, 0)" stroke-miterlimit="10" transform="rotate(-36,50.5,56.57)" pointer-events="all"/><path d="M 57.5 43 L 59.61 46.29 C 59.86 46.7 60 47.16 60 47.64 C 60 49.02 58.88 50.14 57.5 50.14 C 56.12 50.14 55 49.02 55 47.64 C 55 47.16 55.14 46.7 55.39 46.29 Z" fill="#000000" stroke="rgb(0, 0, 0)" stroke-miterlimit="10" transform="rotate(-90,57.5,46.57)" pointer-events="all"/><path d="M 23.5 43 L 25.61 46.29 C 25.86 46.7 26 47.16 26 47.64 C 26 49.02 24.88 50.14 23.5 50.14 C 22.12 50.14 21 49.02 21 47.64 C 21 47.16 21.14 46.7 21.39 46.29 Z" fill="#000000" stroke="rgb(0, 0, 0)" stroke-miterlimit="10" transform="rotate(90,23.5,46.57)" pointer-events="all"/></g></svg>